<svg width="29" height="30" viewBox="0 0 29 30" fill="none" xmlns="http://www.w3.org/2000/svg">
<path fill-rule="evenodd" clip-rule="evenodd" d="M20 0.832031H9C4.44365 0.832031 0.75 4.63761 0.75 9.33203V20.6654C0.75 25.3598 4.44365 29.1654 9 29.1654H20C24.5563 29.1654 28.25 25.3598 28.25 20.6654V9.33203C28.25 4.63761 24.5563 0.832031 20 0.832031ZM3.50001 9.33204C3.50001 6.20243 5.96244 3.66537 9.00001 3.66537H20C23.0376 3.66537 25.5 6.20243 25.5 9.33204V20.6654C25.5 23.795 23.0376 26.332 20 26.332H9.00001C5.96244 26.332 3.50001 23.795 3.50001 20.6654V9.33204ZM14.5 22.082C10.7031 22.082 7.62502 18.9107 7.62502 14.9987C7.62502 11.0867 10.7031 7.91534 14.5 7.91534C18.297 7.91534 21.375 11.0867 21.375 14.9987C21.375 18.9107 18.297 22.082 14.5 22.082ZM14.5 19.2487C16.7782 19.2487 18.625 17.3459 18.625 14.9987C18.625 12.6515 16.7782 10.7487 14.5 10.7487C12.2219 10.7487 10.375 12.6515 10.375 14.9987C10.375 17.3459 12.2219 19.2487 14.5 19.2487ZM22.75 7.91538C22.75 8.69779 22.1344 9.33205 21.375 9.33205C20.6156 9.33205 20 8.69779 20 7.91538C20 7.13298 20.6156 6.49872 21.375 6.49872C22.1344 6.49872 22.75 7.13298 22.75 7.91538Z" fill="#111111"/>
</svg>
