<svg width="30" height="18" viewBox="0 0 30 18" fill="none" xmlns="http://www.w3.org/2000/svg">
<path d="M29.7213 16.1507C29.7213 16.0274 29.602 16.0274 29.602 15.9041C29.1245 14.9178 28.0503 13.6849 26.6179 12.3288C25.9017 11.7123 25.5436 11.2192 25.3049 10.9726C24.9468 10.4795 24.9468 10.1096 25.0662 9.61645C25.1856 9.24658 25.663 8.63013 26.4985 7.52054C26.976 6.9041 27.2147 6.53425 27.5728 6.16439C29.3632 3.69863 30.1988 2.09588 29.96 1.35615L29.8407 1.23288C29.7214 1.10959 29.602 0.986306 29.3632 0.986306C29.1245 0.863018 28.7664 0.863018 28.4083 0.986306H23.8726C23.7532 0.986306 23.7532 0.986306 23.5145 0.986306C23.3951 0.986306 23.2758 0.986306 23.2758 0.986306H23.1564H23.037L22.9177 1.10958C22.7983 1.23287 22.7983 1.23287 22.7983 1.35615C22.3208 2.71232 21.724 3.82191 21.1272 5.05479C20.7691 5.67123 20.411 6.28768 20.053 6.78083C19.6949 7.27398 19.4561 7.64383 19.2174 7.89041C18.9787 8.13698 18.7399 8.26027 18.6206 8.50685C18.5012 8.63013 18.2625 8.75343 18.2625 8.63014C18.1431 8.63014 18.0238 8.63013 18.0238 8.50685C17.9044 8.38356 17.7851 8.26027 17.6657 8.13698C17.5463 8.01369 17.5463 7.76712 17.427 7.52054C17.427 7.27397 17.427 7.02739 17.427 6.9041C17.427 6.78082 17.427 6.41096 17.427 6.16439C17.427 5.79452 17.427 5.54794 17.427 5.42465C17.427 5.05479 17.427 4.56165 17.427 4.0685C17.427 3.57535 17.427 3.20547 17.427 2.9589C17.427 2.71232 17.427 2.34246 17.427 2.09589C17.427 1.72602 17.427 1.47944 17.427 1.35615C17.427 1.23287 17.3076 0.986298 17.3076 0.86301C17.1883 0.739723 17.0689 0.616431 16.9495 0.493143C16.8301 0.369856 16.5914 0.369859 16.4721 0.246572C15.8753 0.123284 15.1591 0 14.3236 0C12.4137 0 11.1007 0.123292 10.6233 0.369867C10.3846 0.493155 10.1458 0.616435 10.0265 0.86301C9.78776 1.10959 9.78775 1.23288 9.90711 1.23288C10.5039 1.35617 10.9814 1.60273 11.2201 1.97259L11.3395 2.21918C11.4588 2.34247 11.4588 2.58904 11.5782 2.9589C11.6975 3.32876 11.6976 3.69862 11.6976 4.19178C11.6976 4.9315 11.6976 5.67124 11.6976 6.16439C11.6976 6.78083 11.5782 7.15068 11.5782 7.52054C11.5782 7.8904 11.4588 8.13699 11.3395 8.26028C11.2201 8.50685 11.2201 8.63014 11.1007 8.63014C11.1007 8.63014 11.1007 8.75342 10.9814 8.75342C10.862 8.75342 10.7427 8.87671 10.5039 8.87671C10.3846 8.87671 10.1458 8.75343 10.0265 8.63014C9.78776 8.50686 9.54903 8.26028 9.42967 8.0137C9.19095 7.76713 8.95221 7.39725 8.71349 6.9041C8.47476 6.41095 8.11666 5.91781 7.87793 5.17808L7.63923 4.68494C7.51987 4.43836 7.28114 3.9452 7.04242 3.32877C6.80369 2.71233 6.56496 2.21918 6.32623 1.60274C6.20687 1.35617 6.08752 1.23287 5.96816 1.10958H5.84879C5.84879 1.10958 5.72941 0.986306 5.61005 0.986306C5.49068 0.986306 5.37134 0.86301 5.25197 0.86301H0.954906C0.477455 0.86301 0.238733 0.986294 0.11937 1.10958L0 1.23288C0 1.23288 0 1.35616 0 1.47945C0 1.60274 7.28355e-06 1.72602 0.11937 1.97259C0.716184 3.45205 1.43236 4.93151 2.14853 6.41096C2.86471 7.76712 3.58089 9.00001 4.05835 9.86302C4.65516 10.726 5.1326 11.589 5.72942 12.3288C6.32623 13.0685 6.68431 13.5616 6.80368 13.8082C7.0424 14.0548 7.16176 14.1781 7.28112 14.3014L7.63923 14.6712C7.87795 14.9178 8.23604 15.2877 8.71349 15.6575C9.19094 16.0274 9.78774 16.3973 10.3846 16.7671C10.9814 17.137 11.6976 17.3836 12.4137 17.6302C13.2493 17.8767 13.9654 18 14.6816 17.8767H16.4721C16.8302 17.8767 17.0689 17.7534 17.3076 17.5069L17.427 17.3836C17.427 17.2603 17.5463 17.2603 17.5463 17.137C17.5463 17.0137 17.5463 16.8904 17.5463 16.6438C17.5463 16.1507 17.5463 15.7808 17.6657 15.411C17.7851 15.0411 17.7851 14.7945 17.9044 14.548C18.0238 14.3014 18.1431 14.1781 18.2625 14.0548C18.3819 13.9315 18.5012 13.8082 18.5012 13.8082H18.6206C18.8593 13.6849 19.2174 13.8082 19.4561 14.0548C19.8142 14.3014 20.1723 14.6712 20.411 15.0411C20.6497 15.411 21.0079 15.7808 21.4853 16.274C21.9628 16.7671 22.3209 17.137 22.5596 17.2603L22.9177 17.5069C23.1564 17.6301 23.3951 17.7534 23.7532 17.8767C24.1113 18 24.35 18 24.5887 18L28.6471 17.8767C29.0052 17.8767 29.3632 17.7534 29.602 17.6302C29.8407 17.5069 29.96 17.3836 29.96 17.137C29.96 17.0137 29.96 16.7671 29.96 16.6438C29.7213 16.3973 29.7213 16.274 29.7213 16.1507Z" fill="#111111"/>
</svg>
